<?xml version="1.0" standalone="no"?><!DOCTYPE svg PUBLIC "-//W3C//DTD SVG 1.1//EN" "http://www.w3.org/Graphics/SVG/1.1/DTD/svg11.dtd"><svg t="1664433076459" class="icon" viewBox="0 0 1024 1024" version="1.1" xmlns="http://www.w3.org/2000/svg" p-id="1383" id="mx_n_1664433076460" xmlns:xlink="http://www.w3.org/1999/xlink" width="200" height="200"><path d="M337.50992 98.442056c-53.331649 22.554692-101.223403 54.845119-142.343939 95.965655-41.12156 41.120536-73.411987 89.014336-95.966679 142.344962-23.360034 55.229882-35.202757 113.882724-35.202757 174.331467 0 60.448744 11.842723 119.096469 35.202757 174.326351 22.554692 53.335742 54.845119 101.228519 95.966679 142.350079 41.120536 41.11542 89.01229 73.405847 142.343939 95.965655 55.230905 23.360034 113.882724 35.20378 174.331467 35.20378 60.444651 0 119.101585-11.844769 174.327374-35.20378 53.331649-22.559808 101.228519-54.845119 142.343939-95.965655 41.12156-41.12156 73.411987-89.014336 95.970772-142.350079 23.361057-55.229882 35.20378-113.877607 35.20378-174.326351 0-60.448744-11.842723-119.101585-35.20378-174.331467-22.558785-53.331649-54.848189-101.224426-95.970772-142.344962-41.11542-41.120536-89.013313-73.40994-142.343939-95.965655C630.942973 75.082022 572.286038 63.237253 511.841388 63.237253 451.392644 63.237253 392.740826 75.082022 337.50992 98.442056zM676.355255 420.716994c4.89652-4.901637 11.419074-7.596002 18.351973-7.596002 6.938016 0 13.45443 2.694365 18.35095 7.596002 4.901637 4.89652 7.601118 11.419074 7.601118 18.351973 0 6.938016-2.699482 13.45443-7.596002 18.356067L529.173125 641.316228c-10.120498 10.120498-26.588565 10.120498-36.70804 0L308.574914 457.425034c-4.901637-4.901637-7.596002-11.418051-7.596002-18.356067 0-6.932899 2.694365-13.450337 7.596002-18.351973 4.901637-4.89652 11.419074-7.596002 18.35095-7.596002 6.938016 0 13.455453 2.699482 18.35709 7.596002l165.544337 165.549453L676.355255 420.716994z" p-id="1384" fill="#bfbfbf"></path></svg>